<svg width="711" height="202" viewBox="0 0 711 202" fill="none" xmlns="http://www.w3.org/2000/svg">
<path d="M16.8941 27.4791L39.1618 185.922" stroke="#6481E9" stroke-width="32" stroke-linecap="round"/>
<path d="M17.7882 26.6554C17.7882 26.6554 113.832 -8.48443 122.017 49.754C130.202 107.992 28.3314 101.674 28.3314 101.674" stroke="#6481E9" stroke-width="32" stroke-linecap="round"/>
<path d="M80.373 98.3341L140.897 162.536" stroke="#6481E9" stroke-width="32" stroke-linecap="round"/>
<path d="M184.806 30.2651L185.424 31.5361" stroke="#6481E9" stroke-width="32" stroke-linecap="round"/>
<path d="M191.058 77.654L202.22 158.081" stroke="#6481E9" stroke-width="32" stroke-linecap="round"/>
<path d="M354 105.5C354 155 304.5 155 304.5 155C304.5 155 255 155 255 105.5C255 56 304.5 56 304.5 56C304.5 56 354 56 354 105.5Z" stroke="#6481E9" stroke-width="32" stroke-linecap="round" stroke-linejoin="round"/>
<path d="M358 105.5C358 155 407.5 155 407.5 155C407.5 155 457 155 457 105.5C457 56 407.5 56 407.5 56C407.5 56 358 56 358 105.5Z" stroke="#6481E9" stroke-width="32" stroke-linecap="round" stroke-linejoin="round"/>
<path d="M526.762 30.2651L526.145 31.5361" stroke="#6481E9" stroke-width="32" stroke-linecap="round"/>
<path d="M520.51 77.654L509.348 158.081" stroke="#6481E9" stroke-width="32" stroke-linecap="round"/>
<path d="M694.674 27.4791L672.406 185.922" stroke="#6481E9" stroke-width="32" stroke-linecap="round"/>
<path d="M693.78 26.6554C693.78 26.6554 597.736 -8.48443 589.551 49.754C581.366 107.992 683.237 101.674 683.237 101.674" stroke="#6481E9" stroke-width="32" stroke-linecap="round"/>
<path d="M631.195 98.3341L570.671 162.536" stroke="#6481E9" stroke-width="32" stroke-linecap="round"/>
</svg>
