<svg width="762" height="203" viewBox="0 0 762 203" fill="none" xmlns="http://www.w3.org/2000/svg">
<path d="M16.8941 31.4791L38.7443 186.951" stroke="#6481E9" stroke-width="32" stroke-linecap="round"/>
<path d="M17.7882 30.6554C17.7882 30.6554 113.832 -4.48443 122.017 53.754C130.202 111.992 28.3314 105.674 28.3314 105.674" stroke="#6481E9" stroke-width="32" stroke-linecap="round"/>
<path d="M80.373 102.334L141.454 170.497" stroke="#6481E9" stroke-width="32" stroke-linecap="round"/>
<path d="M188.806 16.2651L189.424 17.5361" stroke="#6481E9" stroke-width="32" stroke-linecap="round"/>
<path d="M195.058 63.654L205.929 167.084" stroke="#6481E9" stroke-width="32" stroke-linecap="round"/>
<path d="M381 109.5L326.5 55L272 109.5L326.5 164L381 109.5ZM381 109.5L435.5 55L490 109.5L435.5 164L381 109.5Z" stroke="#6481E9" stroke-width="32" stroke-linecap="round" stroke-linejoin="round"/>
<path d="M573.694 16.2651L573.076 17.5361" stroke="#6481E9" stroke-width="32" stroke-linecap="round"/>
<path d="M567.442 63.654L556.571 167.084" stroke="#6481E9" stroke-width="32" stroke-linecap="round"/>
<path d="M745.606 31.4791L723.756 186.951" stroke="#6481E9" stroke-width="32" stroke-linecap="round"/>
<path d="M744.712 30.6554C744.712 30.6554 648.668 -4.48443 640.483 53.754C632.298 111.992 734.169 105.674 734.169 105.674" stroke="#6481E9" stroke-width="32" stroke-linecap="round"/>
<path d="M682.127 102.334L621.046 170.497" stroke="#6481E9" stroke-width="32" stroke-linecap="round"/>
</svg>
