<svg width="300" height="300" viewBox="0 0 300 300" fill="none" xmlns="http://www.w3.org/2000/svg">
<path fill-rule="evenodd" clip-rule="evenodd" d="M94.6029 114.402C77.2809 117.006 64 131.952 64 150C64 168.048 77.2809 182.994 94.6029 185.598L130.201 150L94.6029 114.402ZM36 150C36 114.654 64.6538 86 100 86C103.713 86 107.274 87.475 109.899 90.1005L159.899 140.101C165.367 145.568 165.367 154.432 159.899 159.899L109.899 209.899C107.274 212.525 103.713 214 100 214C64.6538 214 36 185.346 36 150Z" fill="#6047FF"/>
<path fill-rule="evenodd" clip-rule="evenodd" d="M205.397 114.402C222.719 117.006 236 131.952 236 150C236 168.048 222.719 182.994 205.397 185.598L169.799 150L205.397 114.402ZM264 150C264 114.654 235.346 86 200 86C196.287 86 192.726 87.475 190.101 90.1005L140.101 140.101C134.633 145.568 134.633 154.432 140.101 159.899L190.101 209.899C192.726 212.525 196.287 214 200 214C235.346 214 264 185.346 264 150Z" fill="#6CF0F9"/>
</svg>
