<svg width="160" height="160" xmlns="http://www.w3.org/2000/svg" viewbox="0 0 128 128">

  <g>
    <title>Layer 1</title>
    <path class="cls-1" d="m52.21,149.25l-27.79,0l33.82,-138.5l19.2,37.96l-25.23,100.54z"
      fill="#0437f5" id="svg_1" />
    <path class="cls-2"
      d="m102.57,93.79c-0.05,-0.1 -0.03,-0.22 0.07,-0.29c2.09,-1.19 21.52,-12.31 23.9,-13.67c0.12,-0.06 0.14,-0.24 0.04,-0.33l-45.93,-46.2l-17.19,-17.29l-5.21,-5.24l-0.01,0l34.77,68.75c0.07,0.1 0.05,0.25 -0.06,0.31l-24.41,13.68c-0.12,0.06 -0.15,0.24 -0.04,0.33c3.75,3.54 48.97,55.41 48.97,55.41l18.11,0l-33,-55.45l-0.01,-0.01z"
      fill="#09ddb6" id="svg_2" />
    <path class="cls-1" d="m117.54,149.25l18.03,0l-67,-55.41c3.75,3.54 48.97,55.41 48.97,55.41z"
      fill="#0437f5" id="svg_3" />
    <path class="cls-2" d="m52.21,149.25l6.03,-138.5l-0.85,3.38l-32.97,135.11l27.79,0.01z"
      fill="#09ddb6" id="svg_4" />
  </g>
</svg>