<svg id="SvgjsSvg1006" width="847" height="476.38330078125" xmlns="http://www.w3.org/2000/svg" version="1.1" xmlns:xlink="http://www.w3.org/1999/xlink" xmlns:svgjs="http://svgjs.com/svgjs"><defs id="SvgjsDefs1007"><pattern patternUnits="userSpaceOnUse" id="pattern_mark_0" width="300" height="300"><text style="dominant-baseline: middle; text-anchor: middle;" x="150" y="100" fill="rgba(229,229,229,0.8)" font-size="18" transform="rotate(-45, 150, 150)"></text></pattern><pattern patternUnits="userSpaceOnUse" id="pattern_mark_1" width="300" height="300"><text style="dominant-baseline: middle; text-anchor: middle;" x="150" y="200" fill="rgba(229,229,229,0.8)" font-size="18" transform="rotate(-45, 150, 150)"></text></pattern><marker id="SvgjsMarker1211" markerWidth="13" markerHeight="9" refX="9.5" refY="4.5" viewBox="0 0 13 9" orient="auto" markerUnits="userSpaceOnUse" stroke-dasharray="0,0"><path id="SvgjsPath1212" d="M0,0 L13,4.5 L0,9 L0,0" fill="#323232" stroke="#323232" stroke-width="1"></path></marker><marker id="SvgjsMarker1247" markerWidth="13" markerHeight="9" refX="9.5" refY="4.5" viewBox="0 0 13 9" orient="auto" markerUnits="userSpaceOnUse" stroke-dasharray="0,0"><path id="SvgjsPath1248" d="M0,0 L13,4.5 L0,9 L0,0" fill="#323232" stroke="#323232" stroke-width="1"></path></marker><marker id="SvgjsMarker1253" markerWidth="13" markerHeight="9" refX="9.5" refY="4.5" viewBox="0 0 13 9" orient="auto" markerUnits="userSpaceOnUse" stroke-dasharray="0,0"><path id="SvgjsPath1254" d="M0,0 L13,4.5 L0,9 L0,0" fill="#323232" stroke="#323232" stroke-width="1"></path></marker></defs><rect id="svgbackgroundid" width="847" height="476.38330078125" fill="#ffffff"></rect><rect id="SvgjsRect1009" width="847" height="476.38330078125" fill="url(#pattern_mark_0)"></rect><rect id="SvgjsRect1010" width="847" height="476.38330078125" fill="url(#pattern_mark_1)"></rect><g id="SvgjsG1011" transform="translate(136,145.375)"><path id="SvgjsPath1012" d="M 0 10C 0 -3.3333333333333335 20 -3.3333333333333335 20 10C 20 23.333333333333332 0 23.333333333333332 0 10Z" stroke="rgba(33,41,48,1)" stroke-width="1.5" fill-opacity="1" fill="#d4ddc0"></path><g id="SvgjsG1013"><text id="SvgjsText1014" font-family="微软雅黑" text-anchor="middle" font-size="13px" width="0px" fill="#242c19" font-weight="400" align="middle" lineHeight="125%" anchor="middle" family="微软雅黑" size="13px" weight="400" font-style="" opacity="1" y="-0.625" transform="rotate(0)"></text></g></g><g id="SvgjsG1015" transform="translate(185.2,145.375)"><path id="SvgjsPath1016" d="M 0 10C 0 -3.3333333333333335 20 -3.3333333333333335 20 10C 20 23.333333333333332 0 23.333333333333332 0 10Z" stroke="rgba(33,41,48,1)" stroke-width="1.5" fill-opacity="1" fill="#d4ddc0"></path><g id="SvgjsG1017"><text id="SvgjsText1018" font-family="微软雅黑" text-anchor="middle" font-size="13px" width="0px" fill="#242c19" font-weight="400" align="middle" lineHeight="125%" anchor="middle" family="微软雅黑" size="13px" weight="400" font-style="" opacity="1" y="-0.625" transform="rotate(0)"></text></g></g><g id="SvgjsG1019"><path id="SvgjsPath1020" d="M156.75 155.375L170.60000000000002 155.375L170.60000000000002 155.375L184.45 155.375" stroke="#323232" stroke-width="1.5" fill="none"></path></g><g id="SvgjsG1021"><path id="SvgjsPath1022" d="M205.8082276304629 155.81381562135078C 228.6863213245714 160.79724452039756 203 197 228.86964923278708 210.03219059623962" stroke="#323232" stroke-width="1.5" fill="none"></path></g><g id="SvgjsG1023" transform="translate(25,135.375)"><path id="SvgjsPath1024" d="M 0 0L 39 0L 39 40L 0 40Z" stroke="none" fill="none"></path><g id="SvgjsG1025"><text id="SvgjsText1026" font-family="微软雅黑" text-anchor="start" font-size="13px" width="39px" fill="#242c19" font-weight="400" align="middle" lineHeight="125%" anchor="start" family="微软雅黑" size="13px" weight="400" font-style="" opacity="1" y="9.375" transform="rotate(0)"><tspan id="SvgjsTspan1027" dy="16.25" x="0"><tspan id="SvgjsTspan1028" style="">dev</tspan></tspan></text></g></g><g id="SvgjsG1029"><path id="SvgjsPath1030" d="M135.25 155.375L100 155.375L100 155.375L64.75 155.375" stroke-dasharray="8,5" stroke="#323232" stroke-width="1.5" fill="none"></path></g><g id="SvgjsG1031" transform="translate(131,200.5625)"><path id="SvgjsPath1032" d="M 0 10C 0 -3.3333333333333335 20 -3.3333333333333335 20 10C 20 23.333333333333332 0 23.333333333333332 0 10Z" stroke="rgba(33,41,48,1)" stroke-width="1.5" fill-opacity="1" fill="#d4ddc0"></path><g id="SvgjsG1033"><text id="SvgjsText1034" font-family="微软雅黑" text-anchor="middle" font-size="13px" width="0px" fill="#242c19" font-weight="400" align="middle" lineHeight="125%" anchor="middle" family="微软雅黑" size="13px" weight="400" font-style="" opacity="1" y="-0.625" transform="rotate(0)"></text></g></g><g id="SvgjsG1035" transform="translate(180.2,200.5625)"><path id="SvgjsPath1036" d="M 0 10C 0 -3.3333333333333335 20 -3.3333333333333335 20 10C 20 23.333333333333332 0 23.333333333333332 0 10Z" stroke="rgba(33,41,48,1)" stroke-width="1.5" fill-opacity="1" fill="#569230"></path><g id="SvgjsG1037"><text id="SvgjsText1038" font-family="微软雅黑" text-anchor="middle" font-size="13px" width="0px" fill="#242c19" font-weight="400" align="middle" lineHeight="125%" anchor="middle" family="微软雅黑" size="13px" weight="400" font-style="" opacity="1" y="-0.625" transform="rotate(0)"></text></g></g><g id="SvgjsG1039" transform="translate(229.39999999999998,200.5625)"><path id="SvgjsPath1040" d="M 0 10C 0 -3.3333333333333335 20 -3.3333333333333335 20 10C 20 23.333333333333332 0 23.333333333333332 0 10Z" stroke="rgba(33,41,48,1)" stroke-width="1.5" fill-opacity="1" fill="#d4ddc0"></path><g id="SvgjsG1041"><text id="SvgjsText1042" font-family="微软雅黑" text-anchor="middle" font-size="13px" width="0px" fill="#242c19" font-weight="400" align="middle" lineHeight="125%" anchor="middle" family="微软雅黑" size="13px" weight="400" font-style="" opacity="1" y="-0.625" transform="rotate(0)"></text></g></g><g id="SvgjsG1043" transform="translate(278.59999999999997,200.5625)"><path id="SvgjsPath1044" d="M 0 10C 0 -3.3333333333333335 20 -3.3333333333333335 20 10C 20 23.333333333333332 0 23.333333333333332 0 10Z" stroke="rgba(33,41,48,1)" stroke-width="1.5" fill-opacity="1" fill="#d4ddc0"></path><g id="SvgjsG1045"><text id="SvgjsText1046" font-family="微软雅黑" text-anchor="middle" font-size="13px" width="0px" fill="#242c19" font-weight="400" align="middle" lineHeight="125%" anchor="middle" family="微软雅黑" size="13px" weight="400" font-style="" opacity="1" y="-0.625" transform="rotate(0)"></text></g></g><g id="SvgjsG1047"><path id="SvgjsPath1048" d="M151.75 210.5625L165.60000000000002 210.5625L165.60000000000002 210.5625L179.45 210.5625" stroke="#323232" stroke-width="1.5" fill="none"></path></g><g id="SvgjsG1049"><path id="SvgjsPath1050" d="M250.14999999999998 210.5625L264 210.5625L264 210.5625L277.84999999999997 210.5625" stroke="#323232" stroke-width="1.5" fill="none"></path></g><g id="SvgjsG1051"><path id="SvgjsPath1052" d="M200.95 210.5625L214.79999999999995 210.5625L214.79999999999995 210.5625L228.64999999999998 210.5625" stroke="#323232" stroke-width="1.5" fill="none"></path></g><g id="SvgjsG1053" transform="translate(25,190.5625)"><path id="SvgjsPath1054" d="M 0 0L 45 0L 45 40L 0 40Z" stroke="none" fill="none"></path><g id="SvgjsG1055"><text id="SvgjsText1056" font-family="微软雅黑" text-anchor="start" font-size="13px" width="45px" fill="#242c19" font-weight="400" align="middle" lineHeight="125%" anchor="start" family="微软雅黑" size="13px" weight="400" font-style="" opacity="1" y="9.375" transform="rotate(0)"><tspan id="SvgjsTspan1057" dy="16.25" x="0"><tspan id="SvgjsTspan1058" style="">master</tspan></tspan></text></g></g><g id="SvgjsG1059"><path id="SvgjsPath1060" d="M130.25 210.5625L100.5 210.5625L100.5 210.5625L70.75 210.5625" stroke-dasharray="8,5" stroke="#323232" stroke-width="1.5" fill="none"></path></g><g id="SvgjsG1061" transform="translate(312.79999999999995,275.875)"><path id="SvgjsPath1062" d="M 0 10C 0 -3.3333333333333335 20 -3.3333333333333335 20 10C 20 23.333333333333332 0 23.333333333333332 0 10Z" stroke="rgba(33,41,48,1)" stroke-width="1.5" fill-opacity="1" fill="#569230"></path><g id="SvgjsG1063"><text id="SvgjsText1064" font-family="微软雅黑" text-anchor="middle" font-size="13px" width="0px" fill="#242c19" font-weight="400" align="middle" lineHeight="125%" anchor="middle" family="微软雅黑" size="13px" weight="400" font-style="" opacity="1" y="-0.625" transform="rotate(0)"></text></g></g><g id="SvgjsG1065" transform="translate(362,275.875)"><path id="SvgjsPath1066" d="M 0 10C 0 -3.3333333333333335 20 -3.3333333333333335 20 10C 20 23.333333333333332 0 23.333333333333332 0 10Z" stroke="rgba(33,41,48,1)" stroke-width="1.5" fill-opacity="1" fill="#569230"></path><g id="SvgjsG1067"><text id="SvgjsText1068" font-family="微软雅黑" text-anchor="middle" font-size="13px" width="0px" fill="#242c19" font-weight="400" align="middle" lineHeight="125%" anchor="middle" family="微软雅黑" size="13px" weight="400" font-style="" opacity="1" y="-0.625" transform="rotate(0)"></text></g></g><g id="SvgjsG1069" transform="translate(420,275.875)"><path id="SvgjsPath1070" d="M 0 10C 0 -3.3333333333333335 20 -3.3333333333333335 20 10C 20 23.333333333333332 0 23.333333333333332 0 10Z" stroke="rgba(33,41,48,1)" stroke-width="1.5" fill-opacity="1" fill="#569230"></path><g id="SvgjsG1071"><text id="SvgjsText1072" font-family="微软雅黑" text-anchor="middle" font-size="13px" width="0px" fill="#242c19" font-weight="400" align="middle" lineHeight="125%" anchor="middle" family="微软雅黑" size="13px" weight="400" font-style="" opacity="1" y="-0.625" transform="rotate(0)"></text></g></g><g id="SvgjsG1073" transform="translate(462,275.875)"><path id="SvgjsPath1074" d="M 0 10C 0 -3.3333333333333335 20 -3.3333333333333335 20 10C 20 23.333333333333332 0 23.333333333333332 0 10Z" stroke="rgba(33,41,48,1)" stroke-width="1.5" fill-opacity="1" fill="#d4ddc0"></path><g id="SvgjsG1075"><text id="SvgjsText1076" font-family="微软雅黑" text-anchor="middle" font-size="13px" width="0px" fill="#242c19" font-weight="400" align="middle" lineHeight="125%" anchor="middle" family="微软雅黑" size="13px" weight="400" font-style="" opacity="1" y="-0.625" transform="rotate(0)"></text></g></g><g id="SvgjsG1077"><path id="SvgjsPath1078" d="M333.54999999999995 285.875L347.4 285.875L347.4 285.875L361.25 285.875" stroke="#323232" stroke-width="1.5" fill="none"></path></g><g id="SvgjsG1079"><path id="SvgjsPath1080" d="M440.75 285.875L451 285.875L451 285.875L461.25 285.875" stroke="#323232" stroke-width="1.5" fill="none"></path></g><g id="SvgjsG1081"><path id="SvgjsPath1082" d="M382.75 285.875L401 285.875L401 285.875L419.25 285.875" stroke="#323232" stroke-width="1.5" fill="none"></path></g><g id="SvgjsG1083" transform="translate(25,261.5)"><path id="SvgjsPath1084" d="M 0 0L 89 0L 89 48.75L 0 48.75Z" stroke="none" fill="none"></path><g id="SvgjsG1085"><text id="SvgjsText1086" font-family="微软雅黑" text-anchor="start" font-size="13px" width="89px" fill="#242c19" font-weight="400" align="middle" lineHeight="125%" anchor="start" family="微软雅黑" size="13px" weight="400" font-style="" opacity="1" y="13.75" transform="rotate(0)"><tspan id="SvgjsTspan1087" dy="16.25" x="0"><tspan id="SvgjsTspan1088" style="">release-0.1.x</tspan></tspan></text></g></g><g id="SvgjsG1089"><path id="SvgjsPath1090" d="M312.04999999999995 285.875L213.39999999999998 285.875L213.39999999999998 285.875L114.75 285.875" stroke-dasharray="8,5" stroke="#323232" stroke-width="1.5" fill="none"></path></g><g id="SvgjsG1091" transform="translate(315,330.4375)"><path id="SvgjsPath1092" d="M 0 10C 0 -3.3333333333333335 20 -3.3333333333333335 20 10C 20 23.333333333333332 0 23.333333333333332 0 10Z" stroke="rgba(33,41,48,1)" stroke-width="1.5" fill-opacity="1" fill="#d4ddc0"></path><g id="SvgjsG1093"><text id="SvgjsText1094" font-family="微软雅黑" text-anchor="middle" font-size="13px" width="0px" fill="#242c19" font-weight="400" align="middle" lineHeight="125%" anchor="middle" family="微软雅黑" size="13px" weight="400" font-style="" opacity="1" y="-0.625" transform="rotate(0)"></text></g></g><g id="SvgjsG1095"><path id="SvgjsPath1096" d="M335.7499687621398 340.4443451307108C 438 345 410.04450950544685 304.7852520467179 461.31660623882703 286.1839870016518" stroke="#323232" stroke-width="1.5" fill="none"></path></g><g id="SvgjsG1097" transform="translate(25,325.4375)"><path id="SvgjsPath1098" d="M 0 0L 30 0L 30 30L 0 30Z" stroke="none" fill="none"></path><g id="SvgjsG1099"><text id="SvgjsText1100" font-family="微软雅黑" text-anchor="start" font-size="13px" width="30px" fill="#242c19" font-weight="400" align="middle" lineHeight="125%" anchor="start" family="微软雅黑" size="13px" weight="400" font-style="" opacity="1" y="4.375" transform="rotate(0)"><tspan id="SvgjsTspan1101" dy="16.25" x="0"><tspan id="SvgjsTspan1102" style="">fix</tspan></tspan></text></g></g><g id="SvgjsG1103"><path id="SvgjsPath1104" d="M314.25 340.4375L185 340.4375L185 340.4375L55.75 340.4375" stroke-dasharray="8,5" stroke="#323232" stroke-width="1.5" fill="none"></path></g><g id="SvgjsG1105" transform="translate(327.79999999999995,200.5625)"><path id="SvgjsPath1106" d="M 0 10C 0 -3.3333333333333335 20 -3.3333333333333335 20 10C 20 23.333333333333332 0 23.333333333333332 0 10Z" stroke="rgba(33,41,48,1)" stroke-width="1.5" fill-opacity="1" fill="#569230"></path><g id="SvgjsG1107"><text id="SvgjsText1108" font-family="微软雅黑" text-anchor="middle" font-size="13px" width="0px" fill="#242c19" font-weight="400" align="middle" lineHeight="125%" anchor="middle" family="微软雅黑" size="13px" weight="400" font-style="" opacity="1" y="-0.625" transform="rotate(0)"></text></g></g><g id="SvgjsG1109"><path id="SvgjsPath1110" d="M299.34999999999997 210.5625L313.19999999999993 210.5625L313.19999999999993 210.5625L327.04999999999995 210.5625" stroke="#323232" stroke-width="1.5" fill="none"></path></g><g id="SvgjsG1111" transform="translate(128.60000000000002,90.1875)"><path id="SvgjsPath1112" d="M 0 10C 0 -3.3333333333333335 20 -3.3333333333333335 20 10C 20 23.333333333333332 0 23.333333333333332 0 10Z" stroke="rgba(33,41,48,1)" stroke-width="1.5" fill-opacity="1" fill="#d4ddc0"></path><g id="SvgjsG1113"><text id="SvgjsText1114" font-family="微软雅黑" text-anchor="middle" font-size="13px" width="0px" fill="#242c19" font-weight="400" align="middle" lineHeight="125%" anchor="middle" family="微软雅黑" size="13px" weight="400" font-style="" opacity="1" y="-0.625" transform="rotate(0)"></text></g></g><g id="SvgjsG1115" transform="translate(25,80.1875)"><path id="SvgjsPath1116" d="M 0 0L 39 0L 39 40L 0 40Z" stroke="none" fill="none"></path><g id="SvgjsG1117"><text id="SvgjsText1118" font-family="微软雅黑" text-anchor="start" font-size="13px" width="39px" fill="#242c19" font-weight="400" align="middle" lineHeight="125%" anchor="start" family="微软雅黑" size="13px" weight="400" font-style="" opacity="1" y="9.375" transform="rotate(0)"><tspan id="SvgjsTspan1119" dy="16.25" x="0"><tspan id="SvgjsTspan1120" style="">dev</tspan></tspan></text></g></g><g id="SvgjsG1121" transform="translate(177.8,90.1875)"><path id="SvgjsPath1122" d="M 0 10C 0 -3.3333333333333335 20 -3.3333333333333335 20 10C 20 23.333333333333332 0 23.333333333333332 0 10Z" stroke="rgba(33,41,48,1)" stroke-width="1.5" fill-opacity="1" fill="#d4ddc0"></path><g id="SvgjsG1123"><text id="SvgjsText1124" font-family="微软雅黑" text-anchor="middle" font-size="13px" width="0px" fill="#242c19" font-weight="400" align="middle" lineHeight="125%" anchor="middle" family="微软雅黑" size="13px" weight="400" font-style="" opacity="1" y="-0.625" transform="rotate(0)"></text></g></g><g id="SvgjsG1125" transform="translate(227,90.1875)"><path id="SvgjsPath1126" d="M 0 10C 0 -3.3333333333333335 20 -3.3333333333333335 20 10C 20 23.333333333333332 0 23.333333333333332 0 10Z" stroke="rgba(33,41,48,1)" stroke-width="1.5" fill-opacity="1" fill="#d4ddc0"></path><g id="SvgjsG1127"><text id="SvgjsText1128" font-family="微软雅黑" text-anchor="middle" font-size="13px" width="0px" fill="#242c19" font-weight="400" align="middle" lineHeight="125%" anchor="middle" family="微软雅黑" size="13px" weight="400" font-style="" opacity="1" y="-0.625" transform="rotate(0)"></text></g></g><g id="SvgjsG1129"><path id="SvgjsPath1130" d="M149.35000000000002 100.1875L177.05 100.1875" stroke="#323232" stroke-width="1.5" fill="none"></path></g><g id="SvgjsG1131"><path id="SvgjsPath1132" d="M198.55 100.1875L226.25 100.1875" stroke="#323232" stroke-width="1.5" fill="none"></path></g><g id="SvgjsG1133"><path id="SvgjsPath1134" d="M64.75 100.1875L127.85000000000002 100.1875" stroke-dasharray="8,5" stroke="#323232" stroke-width="1.5" fill="none"></path><rect id="SvgjsRect1135" width="0" height="16" x="64.75" y="92.1875" fill="#ffffff"></rect><text id="SvgjsText1136" font-family="微软雅黑" text-anchor="middle" font-size="13px" width="0px" fill="#323232" font-weight="400" align="top" lineHeight="16px" anchor="middle" family="微软雅黑" size="13px" weight="400" font-style="" opacity="1" y="89.5625" transform="rotate(0)"></text></g><g id="SvgjsG1137" transform="translate(377,200.5625)"><path id="SvgjsPath1138" d="M 0 10C 0 -3.3333333333333335 20 -3.3333333333333335 20 10C 20 23.333333333333332 0 23.333333333333332 0 10Z" stroke="rgba(33,41,48,1)" stroke-width="1.5" fill-opacity="1" fill="#d4ddc0"></path><g id="SvgjsG1139"><text id="SvgjsText1140" font-family="微软雅黑" text-anchor="middle" font-size="13px" width="0px" fill="#242c19" font-weight="400" align="middle" lineHeight="125%" anchor="middle" family="微软雅黑" size="13px" weight="400" font-style="" opacity="1" y="-0.625" transform="rotate(0)"></text></g></g><g id="SvgjsG1141"><path id="SvgjsPath1142" d="M348.54999999999995 210.5625L376.25 210.5625" stroke="#323232" stroke-width="1.5" fill="none"></path></g><g id="SvgjsG1143"><path id="SvgjsPath1144" d="M247.66551173099117 100.5333238509894C 291.7467409046289 110.51809913141597 235 201 277.9332496208772 210.2190703391674" stroke="#323232" stroke-width="1.5" fill="none"></path></g><g id="SvgjsG1145"><path id="SvgjsPath1146" d="M299.2211411210738 210.98283761158285C 328.4700930590514 217.45855435329548 282 267 312.3094194624419 285.3076987253943" stroke="#323232" stroke-width="1.5" fill="none"></path></g><g id="SvgjsG1147" transform="translate(140.2,226.5)"><path id="SvgjsPath1148" d="M 0 0L 100 0L 100 23L 0 23Z" stroke="none" fill="none"></path><g id="SvgjsG1149"><text id="SvgjsText1150" font-family="微软雅黑" text-anchor="middle" font-size="13px" width="100px" fill="#242c19" font-weight="400" align="middle" lineHeight="125%" anchor="middle" family="微软雅黑" size="13px" weight="400" font-style="" opacity="1" y="0.875" transform="rotate(0)"><tspan id="SvgjsTspan1151" dy="16.25" x="50"><tspan id="SvgjsTspan1152" style="">0.1.1-aplha-1</tspan></tspan></text></g></g><g id="SvgjsG1153"><path id="SvgjsPath1154" d="M190.2 221.3125L190.2 225.75" stroke="#323232" stroke-width="1.5" fill="none"></path></g><g id="SvgjsG1155" transform="translate(249.39999999999998,305.875)"><path id="SvgjsPath1156" d="M 0 0L 87 0L 87 20L 0 20Z" stroke="none" fill="none"></path><g id="SvgjsG1157"><text id="SvgjsText1158" font-family="微软雅黑" text-anchor="middle" font-size="13px" width="87px" fill="#242c19" font-weight="400" align="middle" lineHeight="125%" anchor="middle" family="微软雅黑" size="13px" weight="400" font-style="" opacity="1" y="-0.625" transform="rotate(0)"><tspan id="SvgjsTspan1159" dy="16.25" x="43.5"><tspan id="SvgjsTspan1160" style="">0.1.1-beta-1</tspan></tspan></text></g></g><g id="SvgjsG1161" transform="translate(180.2,35)"><path id="SvgjsPath1162" d="M 0 10C 0 -3.3333333333333335 20 -3.3333333333333335 20 10C 20 23.333333333333332 0 23.333333333333332 0 10Z" stroke="rgba(33,41,48,1)" stroke-width="1.5" fill-opacity="1" fill="#d4ddc0"></path><g id="SvgjsG1163"><text id="SvgjsText1164" font-family="微软雅黑" text-anchor="start" font-size="13px" width="0px" fill="#242c19" font-weight="400" align="middle" lineHeight="125%" anchor="start" family="微软雅黑" size="13px" weight="400" font-style="" opacity="1" y="-0.625" transform="rotate(0)"></text></g></g><g id="SvgjsG1165" transform="translate(25,25)"><path id="SvgjsPath1166" d="M 0 0L 39 0L 39 40L 0 40Z" stroke="none" fill="none"></path><g id="SvgjsG1167"><text id="SvgjsText1168" font-family="微软雅黑" text-anchor="start" font-size="13px" width="39px" fill="#242c19" font-weight="400" align="middle" lineHeight="125%" anchor="start" family="微软雅黑" size="13px" weight="400" font-style="" opacity="1" y="9.375" transform="rotate(0)"><tspan id="SvgjsTspan1169" dy="16.25" x="0"><tspan id="SvgjsTspan1170" style="">dev</tspan></tspan></text></g></g><g id="SvgjsG1171" transform="translate(229.39999999999998,35)"><path id="SvgjsPath1172" d="M 0 10C 0 -3.3333333333333335 20 -3.3333333333333335 20 10C 20 23.333333333333332 0 23.333333333333332 0 10Z" stroke="rgba(33,41,48,1)" stroke-width="1.5" fill-opacity="1" fill="#d4ddc0"></path><g id="SvgjsG1173"><text id="SvgjsText1174" font-family="微软雅黑" text-anchor="start" font-size="13px" width="0px" fill="#242c19" font-weight="400" align="middle" lineHeight="125%" anchor="start" family="微软雅黑" size="13px" weight="400" font-style="" opacity="1" y="-0.625" transform="rotate(0)"></text></g></g><g id="SvgjsG1175" transform="translate(278.59999999999997,35)"><path id="SvgjsPath1176" d="M 0 10C 0 -3.3333333333333335 20 -3.3333333333333335 20 10C 20 23.333333333333332 0 23.333333333333332 0 10Z" stroke="rgba(33,41,48,1)" stroke-width="1.5" fill-opacity="1" fill="#d4ddc0"></path><g id="SvgjsG1177"><text id="SvgjsText1178" font-family="微软雅黑" text-anchor="start" font-size="13px" width="0px" fill="#242c19" font-weight="400" align="middle" lineHeight="125%" anchor="start" family="微软雅黑" size="13px" weight="400" font-style="" opacity="1" y="-0.625" transform="rotate(0)"></text></g></g><g id="SvgjsG1179"><path id="SvgjsPath1180" d="M200.95 45L228.64999999999998 45" stroke="#323232" stroke-width="1.5" fill="none"></path></g><g id="SvgjsG1181"><path id="SvgjsPath1182" d="M250.14999999999998 45L277.84999999999997 45" stroke="#323232" stroke-width="1.5" fill="none"></path></g><g id="SvgjsG1183"><path id="SvgjsPath1184" d="M64.75 45L179.45 45" stroke-dasharray="8,5" stroke="#323232" stroke-width="1.5" fill="none"></path><rect id="SvgjsRect1185" width="0" height="16" x="64.75" y="37" fill="#ffffff"></rect><text id="SvgjsText1186" font-family="微软雅黑" text-anchor="start" font-size="13px" width="0px" fill="#323232" font-weight="400" align="top" lineHeight="16px" anchor="start" family="微软雅黑" size="13px" weight="400" font-style="" opacity="1" y="34.375" transform="rotate(0)"></text></g><g id="SvgjsG1187"><path id="SvgjsPath1188" d="M299.31819754413465 45.21608398274502C 381 60 314 186 376.3464779867982 210.1945204105379" stroke="#323232" stroke-width="1.5" fill="none"></path></g><g id="SvgjsG1189" transform="translate(340,305.875)"><path id="SvgjsPath1190" d="M 0 0L 64 0L 64 20L 0 20Z" stroke="none" fill="none"></path><g id="SvgjsG1191"><text id="SvgjsText1192" font-family="微软雅黑" text-anchor="middle" font-size="13px" width="64px" fill="#242c19" font-weight="400" align="middle" lineHeight="125%" anchor="middle" family="微软雅黑" size="13px" weight="400" font-style="" opacity="1" y="-0.625" transform="rotate(0)"><tspan id="SvgjsTspan1193" dy="16.25" x="32"><tspan id="SvgjsTspan1194" style="">0.1.1-rc-1</tspan></tspan></text></g></g><g id="SvgjsG1195"><path id="SvgjsPath1196" d="M372 296.625L372 305.125" stroke="#323232" stroke-width="1.5" fill="none"></path></g><g id="SvgjsG1197" transform="translate(397,248)"><path id="SvgjsPath1198" d="M 0 0L 66 0L 66 19.25L 0 19.25Z" stroke="none" fill="none"></path><g id="SvgjsG1199"><text id="SvgjsText1200" font-family="微软雅黑" text-anchor="middle" font-size="13px" width="66px" fill="#242c19" font-weight="400" align="middle" lineHeight="125%" anchor="middle" family="微软雅黑" size="13px" weight="400" font-style="" opacity="1" y="-1" transform="rotate(0)"><tspan id="SvgjsTspan1201" dy="16.25" x="33"><tspan id="SvgjsTspan1202" style="">0.1.1</tspan></tspan></text></g></g><g id="SvgjsG1203" transform="translate(512,275.875)"><path id="SvgjsPath1204" d="M 0 10C 0 -3.3333333333333335 20 -3.3333333333333335 20 10C 20 23.333333333333332 0 23.333333333333332 0 10Z" stroke="rgba(33,41,48,1)" stroke-width="1.5" fill-opacity="1" fill="#569230"></path><g id="SvgjsG1205"><text id="SvgjsText1206" font-family="微软雅黑" text-anchor="middle" font-size="13px" width="0px" fill="#242c19" font-weight="400" align="middle" lineHeight="125%" anchor="middle" family="微软雅黑" size="13px" weight="400" font-style="" opacity="1" y="-0.625" transform="rotate(0)"></text></g></g><g id="SvgjsG1207"><path id="SvgjsPath1208" d="M482.75 285.875L511.25 285.875" stroke="#323232" stroke-width="1.5" fill="none"></path></g><g id="SvgjsG1209"><path id="SvgjsPath1210" d="M532.75 285.875L822 285.875" stroke="#323232" stroke-width="1.5" fill="none" marker-end="url(#SvgjsMarker1211)"></path></g><g id="SvgjsG1213" transform="translate(502,305.875)"><path id="SvgjsPath1214" d="M 0 0L 40 0L 40 20L 0 20Z" stroke="none" fill="none"></path><g id="SvgjsG1215"><text id="SvgjsText1216" font-family="微软雅黑" text-anchor="middle" font-size="13px" width="40px" fill="#242c19" font-weight="400" align="middle" lineHeight="125%" anchor="middle" family="微软雅黑" size="13px" weight="400" font-style="" opacity="1" y="-0.625" transform="rotate(0)"><tspan id="SvgjsTspan1217" dy="16.25" x="20"><tspan id="SvgjsTspan1218" style="">0.1.2</tspan></tspan></text></g></g><g id="SvgjsG1219"><path id="SvgjsPath1220" d="M522 296.625L522 305.125" stroke="#323232" stroke-width="1.5" fill="none"></path></g><g id="SvgjsG1221" transform="translate(564.1999999999999,200.5625)"><path id="SvgjsPath1222" d="M 0 10C 0 -3.3333333333333335 20 -3.3333333333333335 20 10C 20 23.333333333333332 0 23.333333333333332 0 10Z" stroke="rgba(33,41,48,1)" stroke-width="1.5" fill-opacity="1" fill="#d4ddc0"></path><g id="SvgjsG1223"><text id="SvgjsText1224" font-family="微软雅黑" text-anchor="middle" font-size="13px" width="0px" fill="#242c19" font-weight="400" align="middle" lineHeight="125%" anchor="middle" family="微软雅黑" size="13px" weight="400" font-style="" opacity="1" y="-0.625" transform="rotate(0)"></text></g></g><g id="SvgjsG1225"><path id="SvgjsPath1226" d="M397.75 210.5625L563.4499999999999 210.5625" stroke-dasharray="8,5" stroke="#323232" stroke-width="1.5" fill="none"></path></g><g id="SvgjsG1227" transform="translate(25,370.625)"><path id="SvgjsPath1228" d="M 0 0L 89 0L 89 48.75L 0 48.75Z" stroke="none" fill="none"></path><g id="SvgjsG1229"><text id="SvgjsText1230" font-family="微软雅黑" text-anchor="start" font-size="13px" width="89px" fill="#242c19" font-weight="400" align="middle" lineHeight="125%" anchor="start" family="微软雅黑" size="13px" weight="400" font-style="" opacity="1" y="13.75" transform="rotate(0)"><tspan id="SvgjsTspan1231" dy="16.25" x="0"><tspan id="SvgjsTspan1232" style="">release-0.1.x</tspan></tspan></text></g></g><g id="SvgjsG1233"><path id="SvgjsPath1234" d="M761.25 395L438 395L438 395L114.75 395" stroke-dasharray="8,5" stroke="#323232" stroke-width="1.5" fill="none"></path></g><g id="SvgjsG1235" transform="translate(722,411.375)"><path id="SvgjsPath1236" d="M 0 0L 100 0L 100 40L 0 40Z" stroke="none" fill="none"></path><g id="SvgjsG1237"><text id="SvgjsText1238" font-family="微软雅黑" text-anchor="middle" font-size="13px" width="100px" fill="#242c19" font-weight="400" align="middle" lineHeight="125%" anchor="middle" family="微软雅黑" size="13px" weight="400" font-style="" opacity="1" y="9.375" transform="rotate(0)"><tspan id="SvgjsTspan1239" dy="16.25" x="50"><tspan id="SvgjsTspan1240" style="">0.2.1-beta-1</tspan></tspan></text></g></g><g id="SvgjsG1241" transform="translate(762,385)"><path id="SvgjsPath1242" d="M 0 10C 0 -3.3333333333333335 20 -3.3333333333333335 20 10C 20 23.333333333333332 0 23.333333333333332 0 10Z" stroke="rgba(33,41,48,1)" stroke-width="1.5" fill-opacity="1" fill="#569230"></path><g id="SvgjsG1243"><text id="SvgjsText1244" font-family="微软雅黑" text-anchor="middle" font-size="13px" width="0px" fill="#242c19" font-weight="400" align="middle" lineHeight="125%" anchor="middle" family="微软雅黑" size="13px" weight="400" font-style="" opacity="1" y="-0.625" transform="rotate(0)"></text></g></g><g id="SvgjsG1245"><path id="SvgjsPath1246" d="M782.75 395L822 395" stroke="#323232" stroke-width="1.5" fill="none" marker-end="url(#SvgjsMarker1247)"></path></g><g id="SvgjsG1249"><path id="SvgjsPath1250" d="M772 405.75L772 410.625" stroke="#323232" stroke-width="1.5" fill="none"></path></g><g id="SvgjsG1251"><path id="SvgjsPath1252" d="M747.75 210.5625L814 210.5625" stroke="#323232" stroke-width="1.5" fill="none" marker-end="url(#SvgjsMarker1253)"></path></g><g id="SvgjsG1255" transform="translate(727,200.5625)"><path id="SvgjsPath1256" d="M 0 10C 0 -3.3333333333333335 20 -3.3333333333333335 20 10C 20 23.333333333333332 0 23.333333333333332 0 10Z" stroke="rgba(33,41,48,1)" stroke-width="1.5" fill-opacity="1" fill="#569230"></path><g id="SvgjsG1257"><text id="SvgjsText1258" font-family="微软雅黑" text-anchor="middle" font-size="13px" width="0px" fill="#242c19" font-weight="400" align="middle" lineHeight="125%" anchor="middle" family="微软雅黑" size="13px" weight="400" font-style="" opacity="1" y="-0.625" transform="rotate(0)"></text></g></g><g id="SvgjsG1259" transform="translate(687,175.375)"><path id="SvgjsPath1260" d="M 0 0L 100 0L 100 20L 0 20Z" stroke="none" fill="none"></path><g id="SvgjsG1261"><text id="SvgjsText1262" font-family="微软雅黑" text-anchor="middle" font-size="13px" width="100px" fill="#242c19" font-weight="400" align="middle" lineHeight="125%" anchor="middle" family="微软雅黑" size="13px" weight="400" font-style="" opacity="1" y="-0.625" transform="rotate(0)"><tspan id="SvgjsTspan1263" dy="16.25" x="50"><tspan id="SvgjsTspan1264" style="">0.3.1-aplha-1</tspan></tspan></text></g></g><g id="SvgjsG1265" transform="translate(307.7999999999999,226.5)"><path id="SvgjsPath1266" d="M 0 0L 100 0L 100 20L 0 20Z" stroke="none" fill="none"></path><g id="SvgjsG1267"><text id="SvgjsText1268" font-family="微软雅黑" text-anchor="middle" font-size="13px" width="100px" fill="#242c19" font-weight="400" align="middle" lineHeight="125%" anchor="middle" family="微软雅黑" size="13px" weight="400" font-style="" opacity="1" y="-0.625" transform="rotate(0)"><tspan id="SvgjsTspan1269" dy="16.25" x="50"><tspan id="SvgjsTspan1270" style="">0.2.1-aplha-1</tspan></tspan></text></g></g><g id="SvgjsG1271"><path id="SvgjsPath1272" d="M338.5189851497085 220.77594871631976L357.08101485029135 226.28655128368024" stroke="#323232" stroke-width="1.5" fill="none"></path></g><g id="SvgjsG1273"><path id="SvgjsPath1274" d="M430 275.125L430 268" stroke="#323232" stroke-width="1.5" fill="none"></path></g><g id="SvgjsG1275"><path id="SvgjsPath1276" d="M737 196.125L737 199.8125" stroke="#323232" stroke-width="1.5" fill="none"></path></g><g id="SvgjsG1277"><path id="SvgjsPath1278" d="M322.0887257687205 296.11288435828743L293.6112742312794 305.63711564171257" stroke="#323232" stroke-width="1.5" fill="none"></path></g><g id="SvgjsG1279"><path id="SvgjsPath1280" d="M532.3321656280116 285.2025671070154C 552 256 533.4129100933568 221.7680843256955 563.5553977249472 210.94589001942768" stroke="#323232" stroke-width="1.5" fill="none"></path></g><g id="SvgjsG1281" transform="translate(662.1999999999999,200.5625)"><path id="SvgjsPath1282" d="M 0 10C 0 -3.3333333333333335 20 -3.3333333333333335 20 10C 20 23.333333333333332 0 23.333333333333332 0 10Z" stroke="rgba(33,41,48,1)" stroke-width="1.5" fill-opacity="1" fill="#d4ddc0"></path><g id="SvgjsG1283"><text id="SvgjsText1284" font-family="微软雅黑" text-anchor="middle" font-size="13px" width="0px" fill="#242c19" font-weight="400" align="middle" lineHeight="125%" anchor="middle" family="微软雅黑" size="13px" weight="400" font-style="" opacity="1" y="-0.625" transform="rotate(0)"></text></g></g><g id="SvgjsG1285"><path id="SvgjsPath1286" d="M584.9499999999999 210.5625L661.4499999999999 210.5625" stroke-dasharray="8,5" stroke="#323232" stroke-width="1.5" fill="none"></path></g><g id="SvgjsG1287"><path id="SvgjsPath1288" d="M682.9499999999999 210.5625L726.25 210.5625" stroke="#323232" stroke-width="1.5" fill="none"></path></g><g id="SvgjsG1289"><path id="SvgjsPath1290" d="M682.9175165340348 210.78083465915086C 752 220 669 389 761.2625408454824 394.8634203696809" stroke="#323232" stroke-width="1.5" fill="none"></path></g></svg>